<?xml version="1.0" encoding="UTF-8" standalone="no"?>
<svg width="180px" height="30px" viewBox="0 0 180 30" version="1.1" xmlns="http://www.w3.org/2000/svg" xmlns:xlink="http://www.w3.org/1999/xlink">
    <!-- Generator: Sketch 3.6.1 (26313) - http://www.bohemiancoding.com/sketch -->
    <title>tag-logo-color</title>
    <!--<g id="Page-1" stroke="none" stroke-width="1" fill="none" fill-rule="evenodd">-->
        <g id="tag-logo-color">
            <g id="logo-tree">
                <path d="M23.6190476,12.7619048 C22.7619048,11.1904762 21.2380952,10 19.4761905,9.57142857 C20,8.61904762 20.2857143,7.57142857 20.2857143,6.42857143 C20.2857143,2.9047619 17.3809524,0 13.8095238,0 C10.952381,0 8.52380952,1.85714286 7.66666667,4.47619048 C5.38095238,5.42857143 3.80952381,7.61904762 3.71428571,10.1904762 C1.52380952,11.2380952 0,13.4285714 0,16.047619 C0,19.6190476 2.9047619,22.5238095 6.47619048,22.5238095 C9,22.5238095 11.1904762,21.047619 12.2380952,18.952381 C13.047619,20.4285714 14.3809524,21.5714286 16,22.0952381 C17.0952381,24.0952381 19.2380952,25.4761905 21.6666667,25.4761905 C25.2380952,25.4761905 28.1428571,22.5714286 28.1428571,19 C28.1428571,16.047619 26.2380952,13.6190476 23.6190476,12.7619048 L23.6190476,12.7619048 L23.6190476,12.7619048 Z" id="tree-leaves" fill="#00BC2F"></path>
                <path d="M21.6666667,17.1904762 C20.7142857,17.1904762 19.9047619,17.952381 19.9047619,18.952381 C19.9047619,19.1428571 19.952381,19.3809524 20,19.5714286 L14.5238095,25.047619 L14.5238095,21.3809524 C14.5238095,20.3333333 14.8571429,19.952381 15.6190476,19.1904762 C16.3809524,18.4285714 17.2857143,17.5238095 17.2857143,17.5238095 C17.4761905,17.5714286 17.6666667,17.6190476 17.9047619,17.6190476 C18.8571429,17.6190476 19.6666667,16.8571429 19.6666667,15.8571429 C19.6666667,14.9047619 18.9047619,14.0952381 17.9047619,14.0952381 C16.952381,14.0952381 16.1428571,14.8571429 16.1428571,15.8571429 C16.1428571,16.047619 16.1904762,16.2857143 16.2380952,16.4761905 L14.5238095,18.2380952 L14.5238095,8.0952381 C15.1428571,7.80952381 15.5238095,7.19047619 15.5238095,6.52380952 C15.5238095,5.57142857 14.7619048,4.76190476 13.7619048,4.76190476 C12.8095238,4.76190476 12,5.52380952 12,6.52380952 C12,7.23809524 12.4285714,7.85714286 13,8.0952381 L13,13.9047619 L11.952381,13.9047619 C11.3333333,13.9047619 10.8571429,13.2857143 10.8571429,12.5238095 L10.8571429,12 C11.4761905,11.7142857 11.8571429,11.0952381 11.8571429,10.4285714 C11.8571429,9.47619048 11.0952381,8.66666667 10.0952381,8.66666667 C9.0952381,8.66666667 8.33333333,9.42857143 8.33333333,10.4285714 C8.33333333,11.1428571 8.76190476,11.7619048 9.33333333,12 L9.33333333,12.5238095 C9.33333333,14.0952381 10.5714286,15.3333333 11.9047619,15.3333333 C12.7619048,15.3333333 12.952381,15.4285714 12.952381,16.4285714 L12.952381,21.5714286 L8.14285714,16.6666667 C8.19047619,16.4761905 8.23809524,16.2857143 8.23809524,16.047619 C8.23809524,15.0952381 7.47619048,14.2857143 6.47619048,14.2857143 C5.52380952,14.2857143 4.71428571,15.047619 4.71428571,16.047619 C4.71428571,17 5.47619048,17.8095238 6.47619048,17.8095238 C6.66666667,17.8095238 6.9047619,17.7619048 7.0952381,17.7142857 L11.9047619,22.5238095 C12.6190476,23.2380952 13.0952381,23.952381 13.0952381,25.5238095 L13.0952381,29.952381 L14.5714286,29.952381 L14.5714286,28.0952381 C14.5714286,27.3809524 14.8571429,26.8571429 15.6666667,26.047619 C16.4761905,25.2380952 21.0952381,20.6190476 21.0952381,20.6190476 C21.2857143,20.6666667 21.4761905,20.7142857 21.7142857,20.7142857 C22.6666667,20.7142857 23.4761905,19.952381 23.4761905,18.952381 C23.3809524,18 22.6190476,17.1904762 21.6666667,17.1904762 L21.6666667,17.1904762 L21.6666667,17.1904762 Z" id="tree-stem" fill="#5F6360"></path>
            </g>
            <g id="logo-text" transform="translate(30.952381, 9.047619)" fill="#5F6360">
                <path d="M0,4.9047619 L2.0952381,4.9047619 L2.0952381,2.23809524 L6.04761905,2.23809524 L6.04761905,15.3809524 L3.9047619,15.3809524 L3.9047619,17.2380952 L10.6190476,17.2380952 L10.6190476,15.3809524 L8.47619048,15.3809524 L8.47619048,2.23809524 L12.4761905,2.23809524 L12.4761905,4.9047619 L14.5238095,4.9047619 L14.5238095,0.285714286 L0,0.285714286 L0,4.9047619 L0,4.9047619 Z" id="Shape"></path>
                <path d="M28.1428571,9.47619048 C28.1428571,6.38095238 26.8095238,4.80952381 23.952381,4.80952381 C21.5238095,4.80952381 19.952381,6.42857143 19.4285714,7.57142857 L19.3809524,7.57142857 C19.3809524,7.57142857 19.4761905,7.14285714 19.4761905,6.57142857 L19.4761905,0.285714286 L15.6190476,0.285714286 L15.6190476,2.0952381 L17.1904762,2.0952381 L17.1904762,15.4761905 L15.2857143,15.4761905 L15.2857143,17.2857143 L21.4285714,17.2857143 L21.4285714,15.4761905 L19.5238095,15.4761905 L19.5238095,11.5714286 C19.5238095,8.95238095 21.1904762,6.95238095 23.5714286,6.95238095 C25.5238095,6.95238095 25.8571429,8.28571429 25.8571429,10 L25.8571429,17.2380952 L29.6190476,17.2380952 L29.6190476,15.4285714 L28.1904762,15.4285714 L28.1904762,9.47619048 L28.1428571,9.47619048 L28.1428571,9.47619048 Z" id="Shape"></path>
                <path d="M35,5.0952381 L30.6666667,5.0952381 L30.6666667,6.9047619 L32.6666667,6.9047619 L32.6666667,15.4285714 L30.8095238,15.4285714 L30.8095238,17.2380952 L36.952381,17.2380952 L36.952381,15.4285714 L35,15.4285714 L35,5.0952381 L35,5.0952381 Z" id="Shape"></path>
                <path d="M42.2857143,8.0952381 L42.2380952,8.0952381 C42.2380952,8.0952381 42.2857143,7.71428571 42.2857143,7.23809524 L42.2857143,6.47619048 C42.2857143,5.47619048 41.7619048,5.04761905 40.7142857,5.04761905 L37.952381,5.04761905 L37.952381,6.85714286 L39.4761905,6.85714286 C39.8095238,6.85714286 40,7.04761905 40,7.38095238 L40,15.4285714 L38.1904762,15.4285714 L38.1904762,17.2380952 L44.1428571,17.2380952 L44.1428571,15.4285714 L42.3333333,15.4285714 L42.3333333,12.1904762 C42.3333333,9.80952381 43.4285714,7.19047619 46.047619,7.19047619 C46.4285714,7.19047619 46.7142857,7.28571429 46.7142857,7.28571429 L46.7142857,5 C46.7142857,5 46.4285714,4.95238095 46.0952381,4.95238095 C44.2380952,4.95238095 42.8095238,6.33333333 42.2857143,8.0952381 L42.2857143,8.0952381 L42.2857143,8.0952381 Z" id="Shape"></path>
                <path d="M58.7142857,14.9047619 L58.7142857,0.285714286 L54.3809524,0.285714286 L54.3809524,2.0952381 L56.3809524,2.0952381 L56.3809524,5.95238095 C56.3809524,6.47619048 56.4761905,6.85714286 56.4761905,6.85714286 L56.4285714,6.85714286 C56.4285714,6.85714286 55.4285714,4.80952381 52.6666667,4.80952381 C49.3809524,4.80952381 47.1428571,7.28571429 47.1428571,11.1904762 C47.1428571,14.952381 49.1904762,17.5714286 52.4761905,17.5714286 C55.6190476,17.5714286 56.5714286,15.1428571 56.5714286,15.1428571 L56.6190476,15.1428571 C56.6190476,15.1428571 56.5238095,15.3809524 56.5238095,15.8095238 L56.5238095,16 C56.5238095,16.8095238 56.952381,17.3333333 58.047619,17.3333333 L60.4761905,17.3333333 L60.4761905,15.5238095 L59.2380952,15.5238095 C58.9047619,15.4285714 58.7142857,15.2857143 58.7142857,14.9047619 L58.7142857,14.9047619 L58.7142857,14.9047619 Z M52.952381,15.5238095 C50.952381,15.5238095 49.5238095,13.8095238 49.5238095,11.1904762 C49.5238095,8.42857143 51.0952381,6.85714286 53.047619,6.85714286 C55.3333333,6.85714286 56.4761905,8.95238095 56.4761905,11.1904762 C56.4761905,14.1904762 54.7619048,15.5238095 52.952381,15.5238095 L52.952381,15.5238095 L52.952381,15.5238095 Z" id="Shape"></path>
                <path d="M92.3809524,11.0952381 L95.7142857,11.0952381 L95.7142857,13.3333333 C95.7142857,15 92.7142857,15.4285714 91.1904762,15.4285714 C87.1904762,15.4285714 84.6666667,12.5238095 84.6666667,8.61904762 C84.6666667,4.71428571 87.1428571,2.04761905 91.1428571,2.04761905 C93.1428571,2.04761905 95.3809524,2.76190476 95.3809524,4.14285714 L95.3809524,5.38095238 L97.5714286,5.38095238 L97.5714286,3.33333333 C97.5714286,1.19047619 94.047619,0 91.047619,0 C85.7619048,0 82.1428571,3.71428571 82.1428571,8.71428571 C82.1428571,13.7142857 85.8095238,17.5238095 91,17.5238095 C93.5714286,17.5238095 97.9047619,16.5714286 97.9047619,13.952381 L97.9047619,9.19047619 L92.3809524,9.19047619 L92.3809524,11.0952381 L92.3809524,11.0952381 L92.3809524,11.0952381 Z" id="Shape"></path>
                <path d="M103.52381,8.0952381 L103.52381,8.0952381 C103.47619,8.0952381 103.52381,7.71428571 103.52381,7.23809524 L103.52381,6.47619048 C103.52381,5.47619048 103,5.04761905 101.952381,5.04761905 L99.1904762,5.04761905 L99.1904762,6.85714286 L100.714286,6.85714286 C101.047619,6.85714286 101.238095,7.04761905 101.238095,7.38095238 L101.238095,15.4285714 L99.4285714,15.4285714 L99.4285714,17.2380952 L105.380952,17.2380952 L105.380952,15.4285714 L103.571429,15.4285714 L103.571429,12.1904762 C103.571429,9.80952381 104.666667,7.19047619 107.285714,7.19047619 C107.666667,7.19047619 107.952381,7.28571429 107.952381,7.28571429 L107.952381,5 C107.952381,5 107.666667,4.95238095 107.333333,4.95238095 C105.47619,4.95238095 104.047619,6.33333333 103.52381,8.0952381 L103.52381,8.0952381 L103.52381,8.0952381 Z" id="Shape"></path>
                <path d="M114.666667,4.80952381 C111.047619,4.80952381 108.095238,7.47619048 108.095238,11.1428571 C108.095238,14.8571429 111.047619,17.5238095 114.666667,17.5238095 C118.285714,17.5238095 121.238095,14.8571429 121.238095,11.1428571 C121.238095,7.47619048 118.333333,4.80952381 114.666667,4.80952381 L114.666667,4.80952381 L114.666667,4.80952381 Z M114.666667,15.5238095 C112.380952,15.5238095 110.47619,13.7142857 110.47619,11.1428571 C110.47619,8.61904762 112.333333,6.80952381 114.666667,6.80952381 C116.952381,6.80952381 118.857143,8.61904762 118.857143,11.1428571 C118.857143,13.6666667 116.952381,15.5238095 114.666667,15.5238095 L114.666667,15.5238095 L114.666667,15.5238095 Z" id="Shape"></path>
                <path d="M129.333333,6.9047619 L130.904762,6.9047619 L128.285714,14 C128.095238,14.5238095 128,15.1428571 128,15.1428571 L127.904762,15.1428571 C127.904762,15.1428571 127.809524,14.5238095 127.619048,14 L125.047619,6.9047619 L126.619048,6.9047619 L126.619048,5.0952381 L121.142857,5.0952381 L121.142857,6.9047619 L122.666667,6.9047619 L126.571429,17.2380952 L129.190476,17.2380952 L133.142857,6.9047619 L134.666667,6.9047619 L134.666667,5.0952381 L129.238095,5.0952381 L129.238095,6.9047619 L129.333333,6.9047619 L129.333333,6.9047619 Z" id="Shape"></path>
                <path d="M140.857143,4.80952381 C137.380952,4.80952381 134.761905,7.28571429 134.761905,11.1904762 C134.761905,14.8095238 137.380952,17.5714286 141.190476,17.5714286 C144.095238,17.5714286 145.904762,15.9047619 145.904762,15.9047619 L144.952381,14.1904762 C144.952381,14.1904762 143.428571,15.5714286 141.333333,15.5714286 C139.190476,15.5714286 137.285714,14.1428571 137.142857,11.4285714 L146.047619,11.4285714 C146.047619,11.4285714 146.095238,10.8571429 146.095238,10.5238095 C146.095238,7.33333333 144.285714,4.80952381 140.857143,4.80952381 L140.857143,4.80952381 L140.857143,4.80952381 Z M137.238095,9.9047619 C137.571429,7.85714286 139,6.66666667 140.809524,6.66666667 C142.333333,6.66666667 143.619048,7.76190476 143.714286,9.9047619 L137.238095,9.9047619 L137.238095,9.9047619 L137.238095,9.9047619 Z" id="Shape"></path>
                <circle id="Oval" cx="33.8571429" cy="1.71428571" r="1.42857143"></circle>
                <path d="M148.714286,5.57142857 L148.666667,4.61904762 L148.904762,4.61904762 L148.904762,4.38095238 L148.333333,4.38095238 L148,5.19047619 L147.619048,4.38095238 L147.047619,4.38095238 L147.047619,4.61904762 L147.285714,4.61904762 L147.238095,5.57142857 L147.047619,5.57142857 L147.047619,5.80952381 L147.666667,5.80952381 L147.666667,5.57142857 L147.47619,5.57142857 L147.52381,4.76190476 L147.904762,5.57142857 L148.047619,5.57142857 L148.428571,4.76190476 L148.428571,5.57142857 L148.285714,5.57142857 L148.285714,5.80952381 L148.904762,5.80952381 L148.904762,5.57142857 L148.714286,5.57142857 L148.714286,5.57142857 Z" id="Shape"></path>
                <path d="M145.52381,4.80952381 L145.761905,4.80952381 L145.761905,4.61904762 L146.047619,4.61904762 L146.047619,5.57142857 L145.857143,5.57142857 L145.857143,5.80952381 L146.52381,5.80952381 L146.52381,5.57142857 L146.333333,5.57142857 L146.333333,4.61904762 L146.619048,4.61904762 L146.619048,4.80952381 L146.857143,4.80952381 L146.857143,4.38095238 L145.52381,4.38095238 L145.52381,4.80952381 L145.52381,4.80952381 Z" id="Shape"></path>
                <path d="M74.1904762,10 L75.6666667,10 C75.3809524,10.8571429 75,11.7142857 74.5238095,12.4285714 C73.5714286,11.5238095 71.5714286,9.71428571 71.5714286,9.71428571 C69.952381,8.33333333 68.4761905,6.61904762 68.2857143,6.33333333 L68.2857143,6.33333333 C67.7142857,5.42857143 67.5714286,4.85714286 67.5714286,4.28571429 C67.5714286,3.0952381 68.4285714,2 69.7142857,2 C70.9047619,2 71.6666667,2.85714286 71.6666667,3.85714286 C71.6666667,4.85714286 71.2380952,5.61904762 70.3333333,6.38095238 L71.5238095,7.61904762 C73.3333333,6.61904762 74,5.38095238 74,3.85714286 C74,1.61904762 72.2380952,0.0952380952 69.6666667,0.0952380952 C66.7619048,0.0952380952 65.1428571,2.28571429 65.1428571,4.23809524 C65.1428571,5.38095238 65.3809524,6.42857143 66.9047619,8.14285714 C64.7142857,9.33333333 63.2857143,10.9047619 63.2857143,13.047619 C63.2857143,15.5714286 65.2380952,17.5714286 69.047619,17.5714286 C71.1904762,17.5714286 73.1428571,16.7619048 74.6190476,15.2857143 L77.2857143,17.6190476 L78.6666667,16.0952381 C78.5238095,16 76.9047619,14.6190476 75.952381,13.7142857 C76.6190476,12.6666667 77.1428571,11.4285714 77.5714286,10.047619 L79.1428571,10.047619 L79.1428571,8.0952381 L74.1428571,8.0952381 L74.1428571,10 L74.1904762,10 L74.1904762,10 Z M69.0952381,15.5238095 C66.9047619,15.5238095 65.7619048,14.1428571 65.7619048,12.8571429 C65.7619048,11.3809524 66.6666667,10.2857143 68.2380952,9.33333333 C68.7619048,9.85714286 69.3809524,10.4285714 70.0952381,11.0952381 C70.0952381,11.0952381 72.1428571,13 73.1428571,13.9047619 C72.047619,14.952381 70.7142857,15.5238095 69.0952381,15.5238095 L69.0952381,15.5238095 L69.0952381,15.5238095 Z" id="Shape"></path>
            </g>
        </g>
    <!--</g>-->
</svg>
