<svg width="267" height="53" xmlns="http://www.w3.org/2000/svg"><defs><linearGradient x1="103.7%" y1="22.64%" x2="19.23%" y2="80.91%" id="a"><stop stop-color="#7ADEFF" offset="0%"/><stop stop-color="#0077C0" offset="71.58%"/><stop stop-color="#094F9F" offset="100%"/></linearGradient><filter y="-8.8%" height="117.6%" filterUnits="objectBoundingBox" id="b"><feGaussianBlur stdDeviation="1.37" in="SourceGraphic"/></filter><linearGradient x1="69.72%" y1="78.45%" x2="26.45%" y2="32.69%" id="c"><stop stop-color="#11DAF3" offset="0%"/><stop stop-color="#004975" stop-opacity="0" offset="100%"/></linearGradient><filter x="-38.6%" y="-34%" width="177.1%" height="168%" filterUnits="objectBoundingBox" id="d"><feGaussianBlur stdDeviation="3.11" in="SourceGraphic"/></filter><linearGradient x1="60.09%" y1="23.28%" x2="16.35%" y2="91.08%" id="e"><stop stop-color="#FBFFFF" offset="0%"/><stop stop-color="#0077C0" stop-opacity="0" offset="100%"/></linearGradient><filter x="-47.6%" y="-42%" width="195.3%" height="184%" filterUnits="objectBoundingBox" id="f"><feGaussianBlur stdDeviation="3.04" in="SourceGraphic"/></filter></defs><g fill="none" fill-rule="evenodd"><path d="M39.95 15.8c3.3 4.12 4.98 9 4.98 14.48 0 3.18-.6 6.19-1.8 8.94a20.62 20.62 0 0 1-4.85 6.86 22.72 22.72 0 0 1-15.6 5.97c-2.95 0-5.83-.57-8.58-1.67a22.9 22.9 0 0 1-7.23-4.63A21.63 21.63 0 0 1 0 29.88c0-5.39 1.75-10.18 5.2-14.24a23.9 23.9 0 0 1 8.09-6.2 27.18 27.18 0 0 0 4.92-3.06c1.05-.8 2.17-2.06 2.65-5.28 1.66 1.98 3.59 4.2 5.06 5.15 1.31.87 2.65 1.47 3.95 2.06 1.23.55 2.5 1.12 3.75 1.92l.05.03c3.68 2.29 5.64 4.73 6.28 5.53" fill="#0077C0"/><path d="M42.83 30.41c0 2.93-.56 5.69-1.65 8.21a18.95 18.95 0 0 1-4.46 6.3 20.88 20.88 0 0 1-14.34 5.5c-2.7 0-5.35-.52-7.88-1.54-2.48-1-4.71-2.43-6.64-4.25a19.87 19.87 0 0 1-6.31-14.59c0-4.95 1.6-9.35 4.77-13.07a21.96 21.96 0 0 1 7.44-5.7c1.39-.72 2.7-1.4 4.52-2.82.97-.73 2-1.9 2.43-4.85 1.53 1.82 3.3 3.86 4.66 4.74 1.2.8 2.43 1.35 3.62 1.88 1.13.5 2.3 1.04 3.45 1.77 3.42 2.13 5.22 4.38 5.81 5.11a20.8 20.8 0 0 1 4.58 13.31z" fill="url(#a)" filter="url(#b)"/><path d="M39.3 32.86a12 12 0 0 1-.97 4.81 11.1 11.1 0 0 1-2.61 3.7 12.24 12.24 0 0 1-8.41 3.22 12.32 12.32 0 0 1-8.52-3.4 11.65 11.65 0 0 1-3.7-8.55c0-2.9.95-5.48 2.8-7.66a12.88 12.88 0 0 1 4.36-3.35c.82-.42 1.6-.81 2.65-1.65.57-.43 1.18-1.1 1.43-2.84.9 1.07 1.94 2.26 2.73 2.78.7.46 1.43.79 2.12 1.1.67.3 1.35.6 2.02 1.04 2.01 1.25 3.07 2.56 3.42 3a12.2 12.2 0 0 1 2.68 7.8z" fill="url(#c)" filter="url(#d)"/><path d="M32.36 20.77a9.5 9.5 0 0 1-.76 3.8 8.79 8.79 0 0 1-2.07 2.93 9.68 9.68 0 0 1-6.65 2.55 9.75 9.75 0 0 1-6.74-2.69 9.22 9.22 0 0 1-2.93-6.76c0-2.3.75-4.34 2.22-6.07a10.19 10.19 0 0 1 3.45-2.64c.64-.33 1.26-.65 2.1-1.3.45-.35.92-.89 1.13-2.26.7.85 1.53 1.8 2.15 2.2.56.37 1.13.63 1.69.87.52.24 1.06.48 1.6.82 1.58 1 2.42 2.03 2.7 2.37a9.65 9.65 0 0 1 2.11 6.18z" fill="url(#e)" filter="url(#f)"/><g fill="#FFF"><path d="M74.68 20.14h4.12v3.14c.84-2.15 2.2-3.55 4.64-3.43v4.62h-.22c-2.74 0-4.42 1.78-4.42 5.5v5.76h-4.12v-15.6zM85.9 30.23v-10.1h4.13v8.7c0 2.1.92 3.18 2.5 3.18 1.56 0 2.57-1.08 2.57-3.18v-8.7h4.12v15.6H95.1v-2.21c-.95 1.3-2.17 2.5-4.26 2.5-3.12 0-4.94-2.21-4.94-5.79M114.05 27.96v-.06c0-2.58-1.63-4.3-3.55-4.3-1.93 0-3.53 1.72-3.53 4.3v.06c0 2.6 1.6 4.3 3.53 4.3 1.92 0 3.55-1.68 3.55-4.3zm-11.15-7.82h4.13v2.24a5.25 5.25 0 0 1 4.52-2.53c3.4 0 6.62 2.85 6.62 8.05v.06c0 5.2-3.17 8.06-6.62 8.06a5.46 5.46 0 0 1-4.52-2.33v6.7h-4.13V20.13zM129.8 30.23v-.78a6.03 6.03 0 0 0-2.63-.59c-1.76 0-2.85.76-2.85 2.16v.05c0 1.2.92 1.9 2.25 1.9 1.93 0 3.23-1.14 3.23-2.74m-9.46 1.02v-.06c0-3.4 2.4-4.97 5.85-4.97a9.7 9.7 0 0 1 3.55.64v-.27c0-1.83-1.05-2.85-3.11-2.85-1.58 0-2.69.32-4.02.85l-1.03-3.38a12.1 12.1 0 0 1 5.64-1.25c2.25 0 3.88.64 4.91 1.75 1.08 1.16 1.57 2.88 1.57 4.97v9.05h-3.98v-1.69a5.42 5.42 0 0 1-4.4 1.98c-2.73 0-4.98-1.69-4.98-4.77M136.96 35.73h4.06V14.5h-4.06zM164.9 27.2l-2.51-6.6-2.52 6.6h5.04zm-4.38-11.98h3.85l8.13 20.5h-4.37l-1.73-4.56h-8.03l-1.73 4.57h-4.26l8.14-20.5zM175 20.14h4.11v2.2c.95-1.3 2.17-2.5 4.26-2.5 3.12 0 4.94 2.22 4.94 5.8v10.09h-4.13v-8.7c0-2.1-.92-3.17-2.49-3.17-1.57 0-2.58 1.08-2.58 3.17v8.7H175v-15.6zM190.74 33.66l1.77-2.9c1.57 1.22 3.22 1.86 4.58 1.86 1.2 0 1.73-.47 1.73-1.17v-.06c0-.96-1.4-1.28-3-1.8-2.04-.64-4.34-1.66-4.34-4.68v-.06c0-3.17 2.38-4.94 5.31-4.94 1.84 0 3.85.66 5.42 1.8l-1.57 3.05c-1.44-.9-2.87-1.45-3.93-1.45-1 0-1.52.46-1.52 1.07v.06c0 .88 1.38 1.28 2.96 1.86 2.03.73 4.39 1.78 4.39 4.63v.06c0 3.46-2.41 5.03-5.56 5.03a9.75 9.75 0 0 1-6.24-2.36M203.9 20.14h4.17l2.33 9.45 2.74-9.51h3.55l2.77 9.54 2.38-9.48h4.1l-4.53 15.7h-3.72l-2.79-9.56-2.85 9.56h-3.68zM237.3 26.71c-.25-1.98-1.33-3.31-3.07-3.31-1.7 0-2.82 1.3-3.14 3.31h6.2zm-10.25 1.31v-.06c0-4.45 2.95-8.11 7.18-8.11 4.85 0 7.08 4.04 7.08 8.46 0 .35-.03.76-.06 1.16h-10.1c.4 2.01 1.7 3.06 3.54 3.06 1.39 0 2.39-.47 3.53-1.6l2.36 2.24a7.08 7.08 0 0 1-5.94 2.9c-4.37 0-7.6-3.28-7.6-8.05zM244 20.14h4.12v3.15c.84-2.16 2.2-3.55 4.64-3.44v4.63h-.22c-2.74 0-4.42 1.77-4.42 5.5v5.75H244V20.14zM254.57 33.66l1.76-2.9c1.57 1.22 3.22 1.86 4.58 1.86 1.2 0 1.73-.47 1.73-1.17v-.06c0-.96-1.4-1.28-3-1.8-2.04-.64-4.34-1.66-4.34-4.68v-.06c0-3.17 2.38-4.94 5.31-4.94 1.84 0 3.85.66 5.42 1.8l-1.57 3.05c-1.44-.9-2.87-1.45-3.93-1.45-1 0-1.52.46-1.52 1.07v.06c0 .88 1.38 1.28 2.96 1.86 2.03.73 4.39 1.78 4.39 4.63v.06c0 3.46-2.41 5.03-5.56 5.03a9.75 9.75 0 0 1-6.23-2.36M58.09 19.41V31.7h3.22c3.42 0 5.73-2.48 5.73-6.08v-.06c0-3.6-2.3-6.14-5.73-6.14H58.1zm-4.18-4.04h7.4c5.97 0 10.1 4.39 10.1 10.12v.06c0 5.73-4.13 10.18-10.1 10.18h-7.4V15.37z"/></g></g></svg>