<?xml version="1.0" encoding="utf-8"?>
<!-- Generator: Adobe Illustrator 17.1.0, SVG Export Plug-In . SVG Version: 6.00 Build 0)  -->
<!DOCTYPE svg PUBLIC "-//W3C//DTD SVG 1.1//EN" "http://www.w3.org/Graphics/SVG/1.1/DTD/svg11.dtd">
<svg version="1.1" id="Layer_1" xmlns="http://www.w3.org/2000/svg" xmlns:xlink="http://www.w3.org/1999/xlink" x="0px" y="0px"
	 viewBox="0 0 191.2 17.8" enable-background="new 0 0 191.2 17.8" xml:space="preserve">
<g>
	<path fill="#101010" d="M4.4,9.2H1.8v5.4H0V0.5h4.7c2.9,0,4.2,1.4,4.2,4.2C8.9,7,8.1,8.5,6.2,9l2.5,5.6H6.8L4.4,9.2z M4.7,7.5
		c1.7,0,2.4-0.7,2.4-2.7c0-1.9-0.7-2.6-2.4-2.6H1.8v5.3H4.7z"/>
	<path fill="#101010" d="M10.1,9.3c0-3.1,0.6-5.4,4.2-5.4c3.6,0,4.2,2.4,4.2,5.4c0,3.2-0.6,5.5-4.2,5.5
		C10.8,14.8,10.1,12.5,10.1,9.3z M16.8,9.4c0-2.2-0.2-3.8-2.4-3.8c-2.2,0-2.4,1.6-2.4,3.8s0.2,3.8,2.4,3.8
		C16.6,13.2,16.8,11.6,16.8,9.4z"/>
	<path fill="#101010" d="M19.8,11.4c0-3.1,1.8-3.9,5.4-3.9h0.4c0-1.4-0.3-2.1-1.9-2.1c-1.1,0-2,0.3-2.6,0.6l-0.7-1.5
		c0.8-0.4,2-0.7,3.5-0.7c2.8,0,3.4,1.2,3.4,3.7V12c0,0.8,0.1,1,0.8,1v1.6c-0.2,0-0.3,0-0.5,0c-1.1,0-1.6-0.2-1.8-1
		c-0.6,0.8-1.6,1.1-3,1.1C20.6,14.7,19.8,13.5,19.8,11.4z M25.6,10.5V9h-0.4c-2.6,0-3.7,0.3-3.7,2.2c0,1.5,0.6,2,1.8,2
		C24.5,13.2,25.6,12.7,25.6,10.5z"/>
	<path fill="#101010" d="M29.5,9.3c0-2.9,0.4-5.4,3.6-5.4c1.7,0,2.5,0.4,3,1.1V0h1.8v14.5l-1.4,0.1l-0.2-1.2
		c-0.5,0.8-1.3,1.2-3.2,1.2C29.9,14.7,29.5,12.2,29.5,9.3z M36,9.3c0-2.2-0.2-3.8-2.5-3.8c-2,0-2.2,1.6-2.2,3.8s0.2,3.9,2.2,3.9
		C35.8,13.2,36,11.6,36,9.3z"/>
	<path fill="#101010" d="M39.2,14l0.7-1.4c0.7,0.4,1.7,0.6,2.8,0.6c1.1,0,1.8-0.4,1.8-1.4c0-1-0.6-1.3-2.2-2
		c-1.7-0.8-2.8-1.4-2.8-3.1c0-2,1.3-2.9,3.4-2.9c1.3,0,2.1,0.2,2.9,0.5L45,5.9c-0.6-0.2-1.3-0.5-2.2-0.5c-1.2,0-1.6,0.5-1.6,1.3
		c0,0.8,0.6,1.2,2.1,1.8c1.8,0.8,2.8,1.4,2.8,3.3c0,2-1.3,2.9-3.4,2.9C41.3,14.7,40.1,14.5,39.2,14z"/>
	<path fill="#101010" d="M50.7,9.3c0-3.3,0.7-5.4,4.2-5.4c1.1,0,1.9,0.2,2.6,0.5l-0.8,1.5c-0.5-0.3-1.1-0.4-1.7-0.4
		c-2,0-2.5,1.3-2.5,3.8c0,2.5,0.4,3.9,2.5,3.9c0.8,0,1.4-0.2,2-0.5l0.7,1.4c-0.9,0.5-1.7,0.7-2.8,0.7C51.4,14.8,50.7,12.7,50.7,9.3z
		"/>
	<path fill="#101010" d="M58.5,11.4c0-3.1,1.8-3.9,5.4-3.9h0.4c0-1.4-0.3-2.1-1.9-2.1c-1.1,0-2,0.3-2.6,0.6l-0.7-1.5
		c0.8-0.4,2-0.7,3.5-0.7c2.8,0,3.4,1.2,3.4,3.7V12c0,0.8,0.1,1,0.8,1v1.6c-0.2,0-0.3,0-0.5,0c-1.1,0-1.6-0.2-1.8-1
		c-0.6,0.8-1.6,1.1-3,1.1C59.3,14.7,58.5,13.5,58.5,11.4z M64.4,10.5V9h-0.4c-2.6,0-3.7,0.3-3.7,2.2c0,1.5,0.6,2,1.8,2
		C63.3,13.2,64.4,12.7,64.4,10.5z"/>
	<path fill="#101010" d="M68.6,4.2L70.1,4l0.2,1c0.4-0.7,1.3-1.2,3.2-1.2c2.7,0,3.1,1.6,3.1,3.9v6.9h-1.8V8.1c0-1.7-0.2-2.6-1.9-2.6
		c-2.1,0-2.4,1.2-2.4,3.5v5.5h-1.8V4.2z"/>
	<path fill="#101010" d="M81.9,0h1.8v5.1c0.5-0.8,1.3-1.2,3-1.2c3.1,0,3.5,2.6,3.5,5.4c0,2.9-0.4,5.4-3.6,5.4
		c-2.1,0-2.6-0.5-3.2-1.2l-0.3,1.1l-1.3-0.1V0z M88.4,9.4c0-2.2-0.2-3.8-2.2-3.8c-2.3,0-2.5,1.6-2.5,3.8s0.2,3.8,2.5,3.8
		C88.2,13.2,88.4,11.6,88.4,9.4z"/>
	<path fill="#101010" d="M91.5,9.3c0-3.3,0.8-5.4,4.1-5.4c3.6,0,3.6,2.3,3.6,6.2h-6.1c0.1,2,0.5,3.1,2.5,3.1c1.4,0,2.1-0.3,2.7-0.6
		l0.7,1.4c-0.8,0.4-1.8,0.8-3.5,0.8C92.2,14.7,91.5,12.6,91.5,9.3z M93.3,8.5h4.4c0-1.9-0.1-3.1-2-3.1C93.8,5.5,93.3,6.6,93.3,8.5z"
		/>
	<path fill="#101010" d="M104,9.3c0-3.3,0.7-5.4,4.2-5.4c1.1,0,1.9,0.2,2.6,0.5L110,5.9c-0.5-0.3-1.1-0.4-1.7-0.4
		c-2,0-2.5,1.3-2.5,3.8c0,2.5,0.4,3.9,2.5,3.9c0.8,0,1.4-0.2,2-0.5l0.7,1.4c-0.9,0.5-1.7,0.7-2.8,0.7C104.8,14.8,104,12.7,104,9.3z"
		/>
	<path fill="#101010" d="M112.4,0h1.8v5c0.4-0.6,1.1-1.1,3-1.1c2.7,0,3,1.6,3,3.9v6.9h-1.8V8.1c0-1.7-0.2-2.6-1.9-2.6
		c-2,0-2.4,1-2.4,3.5v5.5h-1.8V0z"/>
	<path fill="#101010" d="M121.8,11.4c0-3.1,1.8-3.9,5.4-3.9h0.4c0-1.4-0.3-2.1-1.9-2.1c-1.1,0-2,0.3-2.6,0.6l-0.7-1.5
		c0.8-0.4,2-0.7,3.5-0.7c2.8,0,3.4,1.2,3.4,3.7V12c0,0.8,0.1,1,0.8,1v1.6c-0.2,0-0.3,0-0.5,0c-1.1,0-1.6-0.2-1.8-1
		c-0.6,0.8-1.6,1.1-3,1.1C122.6,14.7,121.8,13.5,121.8,11.4z M127.7,10.5V9h-0.4c-2.6,0-3.7,0.3-3.7,2.2c0,1.5,0.6,2,1.8,2
		C126.6,13.2,127.7,12.7,127.7,10.5z"/>
	<path fill="#101010" d="M134.4,14.6c-1.8,0-2.4-0.6-2.4-2.5V0h1.8v11.9c0,0.9,0.1,1.1,1.3,1.1v1.6C135,14.6,134.8,14.6,134.4,14.6z
		"/>
	<path fill="#101010" d="M139.1,14.6c-1.8,0-2.4-0.6-2.4-2.5V0h1.8v11.9c0,0.9,0.1,1.1,1.3,1.1v1.6
		C139.6,14.6,139.4,14.6,139.1,14.6z"/>
	<path fill="#101010" d="M140.7,9.3c0-3.3,0.8-5.4,4.1-5.4c3.6,0,3.6,2.3,3.6,6.2h-6.1c0.1,2,0.5,3.1,2.5,3.1c1.4,0,2.1-0.3,2.7-0.6
		l0.7,1.4c-0.8,0.4-1.8,0.8-3.5,0.8C141.3,14.7,140.7,12.6,140.7,9.3z M142.4,8.5h4.4c0-1.9-0.1-3.1-2-3.1
		C142.9,5.5,142.5,6.6,142.4,8.5z"/>
	<path fill="#101010" d="M150.2,4.2l1.4-0.1l0.2,1c0.4-0.7,1.3-1.2,3.2-1.2c2.7,0,3.1,1.6,3.1,3.9v6.9h-1.8V8.1
		c0-1.7-0.2-2.6-1.9-2.6c-2.1,0-2.4,1.2-2.4,3.5v5.5h-1.8V4.2z"/>
	<path fill="#101010" d="M162.2,10.7c-0.1,0.2-0.1,0.4-0.1,0.6c0,0.6,0.4,0.7,1.6,0.7c3.2,0,4.1,0.7,4.1,2.7c0,2.2-1.3,3.1-4.3,3.1
		c-3,0-4.3-0.6-4.3-2.6c0-1.3,0.5-2.2,1.8-2.5c-0.4-0.3-0.6-0.7-0.6-1.3c0-0.4,0.1-0.9,0.4-1.2c-0.7-0.5-1.1-1.4-1.1-2.8
		c0-2.6,1.4-3.5,3.7-3.5c0.3,0,0.6,0,0.9,0l3.3-0.5v1.4h-1.5c0.7,0.5,1.1,1.3,1.1,2.6c0,2.6-1.5,3.4-3.7,3.4
		C163.1,10.8,162.6,10.8,162.2,10.7z M166,14.7c0-1-0.4-1.3-2.5-1.3c-1.9,0-2.5,0.5-2.5,1.5c0,1.1,0.6,1.4,2.5,1.4
		C165.5,16.4,166,15.9,166,14.7z M165.5,7.4c0-1.4-0.6-2-2-2c-1.3,0-2,0.6-2,2c0,1.4,0.7,2,2,2C164.9,9.4,165.5,8.8,165.5,7.4z"/>
	<path fill="#101010" d="M169.6,0.6h1.8v2.1h-1.8V0.6z M169.6,4.1h1.8v10.5h-1.8V4.1z"/>
	<path fill="#101010" d="M173.5,4.2L175,4l0.2,1c0.4-0.7,1.3-1.2,3.2-1.2c2.7,0,3.1,1.6,3.1,3.9v6.9h-1.8V8.1c0-1.7-0.2-2.6-1.9-2.6
		c-2.1,0-2.4,1.2-2.4,3.5v5.5h-1.8V4.2z"/>
	<path fill="#101010" d="M185.6,10.7c-0.1,0.2-0.1,0.4-0.1,0.6c0,0.6,0.4,0.7,1.6,0.7c3.2,0,4.1,0.7,4.1,2.7c0,2.2-1.3,3.1-4.3,3.1
		c-3,0-4.3-0.6-4.3-2.6c0-1.3,0.5-2.2,1.8-2.5c-0.4-0.3-0.6-0.7-0.6-1.3c0-0.4,0.1-0.9,0.4-1.2c-0.7-0.5-1.1-1.4-1.1-2.8
		c0-2.6,1.4-3.5,3.7-3.5c0.3,0,0.6,0,0.9,0l3.3-0.5v1.4h-1.5c0.7,0.5,1.1,1.3,1.1,2.6c0,2.6-1.5,3.4-3.7,3.4
		C186.4,10.8,186,10.8,185.6,10.7z M189.4,14.7c0-1-0.4-1.3-2.5-1.3c-1.9,0-2.5,0.5-2.5,1.5c0,1.1,0.6,1.4,2.5,1.4
		C188.9,16.4,189.4,15.9,189.4,14.7z M188.9,7.4c0-1.4-0.6-2-2-2c-1.3,0-2,0.6-2,2c0,1.4,0.7,2,2,2C188.2,9.4,188.9,8.8,188.9,7.4z"
		/>
</g>
</svg>
