<?xml version="1.0" encoding="utf-8"?>
<!-- Generator: Adobe Illustrator 17.1.0, SVG Export Plug-In . SVG Version: 6.00 Build 0)  -->
<!DOCTYPE svg PUBLIC "-//W3C//DTD SVG 1.1//EN" "http://www.w3.org/Graphics/SVG/1.1/DTD/svg11.dtd">
<svg version="1.1" id="Layer_1" xmlns="http://www.w3.org/2000/svg" xmlns:xlink="http://www.w3.org/1999/xlink" x="0px" y="0px"
	 viewBox="0 0 230.7 17.6" enable-background="new 0 0 230.7 17.6" xml:space="preserve">
<g>
	<path fill="#101010" d="M0,0.6h7.8v1.7H1.8v4.4h5.6v1.7H1.8v6.3H0V0.6z"/>
	<path fill="#101010" d="M8.5,9.3c0-3.1,0.6-5.4,4.2-5.4c3.6,0,4.2,2.4,4.2,5.4c0,3.2-0.6,5.5-4.2,5.5C9.2,14.8,8.5,12.5,8.5,9.3z
		 M15.2,9.4c0-2.2-0.2-3.8-2.4-3.8c-2.2,0-2.4,1.6-2.4,3.8s0.2,3.8,2.4,3.8C15,13.2,15.2,11.6,15.2,9.4z"/>
	<path fill="#101010" d="M18.7,4.2l1.4-0.1l0.2,1.2C20.7,4.6,21.5,4,23.2,4v1.7c-2.6,0.1-2.7,1.8-2.7,3.7v5.2h-1.8V4.2z"/>
	<path fill="#101010" d="M23.8,9.3c0-2.9,0.4-5.4,3.6-5.4c1.7,0,2.5,0.4,3,1.1V0h1.8v14.5l-1.4,0.1l-0.2-1.2
		c-0.5,0.8-1.3,1.2-3.2,1.2C24.1,14.8,23.8,12.2,23.8,9.3z M30.3,9.4c0-2.2-0.2-3.8-2.5-3.8c-2,0-2.2,1.6-2.2,3.8s0.2,3.9,2.2,3.9
		C30.1,13.2,30.3,11.6,30.3,9.4z"/>
	<path fill="#101010" d="M37.2,9.3c0-3.1,0.6-5.4,4.2-5.4c3.6,0,4.2,2.4,4.2,5.4c0,3.2-0.6,5.5-4.2,5.5
		C37.9,14.8,37.2,12.5,37.2,9.3z M43.9,9.4c0-2.2-0.2-3.8-2.4-3.8c-2.2,0-2.4,1.6-2.4,3.8s0.2,3.8,2.4,3.8
		C43.6,13.2,43.9,11.6,43.9,9.4z"/>
	<path fill="#101010" d="M53.4,5.7h-3.3v9h-1.8v-9h-1.7V4.1h1.7V2.9c0-1.8,0.8-2.9,3-2.9h0.9v1.6h-0.7c-1.2,0-1.4,0.6-1.4,1.5v1h3.3
		V2.9c0-1.8,0.8-2.9,3-2.9c0.4,0,1,0,1.2,0v1.6h-1.1c-1.2,0-1.4,0.6-1.4,1.5v1h2.4v1.6h-2.4v9h-1.8V5.7z"/>
	<path fill="#101010" d="M58.2,9.3c0-3.3,0.8-5.4,4.1-5.4c3.6,0,3.6,2.3,3.6,6.2h-6.1c0.1,2,0.5,3.1,2.5,3.1c1.4,0,2.1-0.3,2.7-0.6
		l0.7,1.4c-0.8,0.4-1.8,0.8-3.5,0.8C58.9,14.8,58.2,12.7,58.2,9.3z M59.9,8.6h4.4c0-1.9-0.1-3.1-2-3.1C60.5,5.5,60,6.6,59.9,8.6z"/>
	<path fill="#101010" d="M67.7,4.2l1.4-0.1l0.2,1.2C69.7,4.6,70.5,4,72.2,4v1.7c-2.6,0.1-2.7,1.8-2.7,3.7v5.2h-1.8V4.2z"/>
	<path fill="#101010" d="M72.7,14.1l0.7-1.4c0.7,0.4,1.7,0.6,2.8,0.6c1.1,0,1.8-0.4,1.8-1.4c0-1-0.6-1.3-2.2-2C74,9.1,73,8.5,73,6.8
		c0-2,1.3-2.9,3.4-2.9c1.3,0,2.1,0.2,2.9,0.5l-0.7,1.5c-0.6-0.2-1.3-0.5-2.2-0.5c-1.2,0-1.6,0.5-1.6,1.3c0,0.8,0.6,1.2,2.1,1.8
		c1.8,0.8,2.8,1.4,2.8,3.3c0,2-1.3,2.9-3.4,2.9C74.8,14.8,73.6,14.5,72.7,14.1z"/>
	<path fill="#101010" d="M84.6,4.2L86,4.1l0.1,1.1c0.5-0.7,1.4-1.2,3.2-1.2c3.1,0,3.5,2.6,3.5,5.4c0,2.9-0.4,5.4-3.6,5.4
		c-1.7,0-2.5-0.4-3-1.1v4h-1.8V4.2z M91.1,9.4c0-2.2-0.3-3.8-2.2-3.8c-2.3,0-2.5,1.6-2.5,3.8s0.2,3.8,2.5,3.8
		C90.8,13.2,91.1,11.7,91.1,9.4z"/>
	<path fill="#101010" d="M94.6,4.2L96,4.1l0.2,1.2C96.6,4.6,97.4,4,99.1,4v1.7c-2.6,0.1-2.7,1.8-2.7,3.7v5.2h-1.8V4.2z"/>
	<path fill="#101010" d="M99.7,9.3c0-3.3,0.8-5.4,4.1-5.4c3.6,0,3.6,2.3,3.6,6.2h-6.1c0.1,2,0.5,3.1,2.5,3.1c1.4,0,2.1-0.3,2.7-0.6
		l0.7,1.4c-0.8,0.4-1.8,0.8-3.5,0.8C100.3,14.8,99.7,12.7,99.7,9.3z M101.4,8.6h4.4c0-1.9-0.1-3.1-2-3.1
		C101.9,5.5,101.5,6.6,101.4,8.6z"/>
	<path fill="#101010" d="M108.2,4.1h1.9l2.4,8.2l2.4-8.2h1.8l-3.3,10.6h-1.9L108.2,4.1z"/>
	<path fill="#101010" d="M117.2,9.3c0-3.3,0.8-5.4,4.1-5.4c3.6,0,3.6,2.3,3.6,6.2h-6.1c0.1,2,0.5,3.1,2.5,3.1c1.4,0,2.1-0.3,2.7-0.6
		l0.7,1.4c-0.8,0.4-1.8,0.8-3.5,0.8C117.9,14.8,117.2,12.7,117.2,9.3z M118.9,8.6h4.4c0-1.9-0.1-3.1-2-3.1
		C119.5,5.5,119,6.6,118.9,8.6z"/>
	<path fill="#101010" d="M126.7,4.2l1.4-0.1l0.2,1c0.4-0.7,1.3-1.2,3.2-1.2c2.7,0,3.1,1.6,3.1,3.9v6.9h-1.8V8.2
		c0-1.7-0.2-2.6-1.9-2.6c-2.1,0-2.4,1.2-2.4,3.5v5.5h-1.8V4.2z"/>
	<path fill="#101010" d="M135.8,4.1h1.7l0.3-2.8l1.4-0.3v3.1h2.5v1.6h-2.5v6c0,0.9,0.1,1.4,1.3,1.4h1.2v1.6c-0.3,0-1.1,0.1-1.4,0.1
		c-2.4,0-2.9-0.9-2.9-2.9V5.7h-1.6V4.1z"/>
	<path fill="#101010" d="M143.6,0.7h1.8v2.1h-1.8V0.7z M143.6,4.1h1.8v10.5h-1.8V4.1z"/>
	<path fill="#101010" d="M146.6,4.1h1.9l2.4,8.2l2.4-8.2h1.8l-3.3,10.6h-1.9L146.6,4.1z"/>
	<path fill="#101010" d="M155.7,9.3c0-3.3,0.8-5.4,4.1-5.4c3.6,0,3.6,2.3,3.6,6.2h-6.1c0.1,2,0.5,3.1,2.5,3.1c1.4,0,2.1-0.3,2.7-0.6
		l0.7,1.4c-0.8,0.4-1.8,0.8-3.5,0.8C156.3,14.8,155.7,12.7,155.7,9.3z M157.4,8.6h4.4c0-1.9-0.1-3.1-2-3.1
		C157.9,5.5,157.5,6.6,157.4,8.6z"/>
	<path fill="#101010" d="M167.9,4.1h1.7V2.9c0-1.8,0.8-2.9,3-2.9c0.4,0,1,0,1.2,0v1.6h-1.1c-1.2,0-1.4,0.6-1.4,1.5v1h2.4v1.6h-2.4v9
		h-1.8v-9h-1.7V4.1z"/>
	<path fill="#101010" d="M174.3,9.3c0-3.3,0.8-5.4,4.1-5.4c3.6,0,3.6,2.3,3.6,6.2H176c0.1,2,0.5,3.1,2.5,3.1c1.4,0,2.1-0.3,2.7-0.6
		l0.7,1.4c-0.8,0.4-1.8,0.8-3.5,0.8C174.9,14.8,174.3,12.7,174.3,9.3z M176,8.6h4.4c0-1.9-0.1-3.1-2-3.1
		C176.5,5.5,176.1,6.6,176,8.6z"/>
	<path fill="#101010" d="M183.2,11.5c0-3.1,1.8-3.9,5.4-3.9h0.4c0-1.4-0.3-2.1-1.9-2.1c-1.1,0-2,0.3-2.6,0.6l-0.7-1.5
		c0.8-0.4,2-0.7,3.5-0.7c2.8,0,3.4,1.2,3.4,3.7v4.4c0,0.8,0.1,1,0.8,1v1.6c-0.2,0-0.3,0-0.5,0c-1.1,0-1.6-0.2-1.8-1
		c-0.6,0.8-1.6,1.1-3,1.1C184,14.8,183.2,13.5,183.2,11.5z M189.1,10.6V9.1h-0.4c-2.6,0-3.7,0.3-3.7,2.2c0,1.5,0.6,2,1.8,2
		C188,13.3,189.1,12.7,189.1,10.6z"/>
	<path fill="#101010" d="M192.6,4.1h1.7l0.3-2.8L196,1v3.1h2.5v1.6H196v6c0,0.9,0.1,1.4,1.3,1.4h1.2v1.6c-0.3,0-1.1,0.1-1.4,0.1
		c-2.4,0-2.9-0.9-2.9-2.9V5.7h-1.6V4.1z"/>
	<path fill="#101010" d="M200.2,10.7V4.1h1.8v6.5c0,1.7,0.2,2.6,2.1,2.6c1.8,0,2-0.9,2-2.6V4.1h1.7v6.6c0,2.8-0.6,4.1-3.8,4.1
		C200.9,14.8,200.2,13.5,200.2,10.7z"/>
	<path fill="#101010" d="M209.9,4.2l1.4-0.1l0.2,1.2c0.4-0.7,1.2-1.3,2.9-1.3v1.7c-2.6,0.1-2.7,1.8-2.7,3.7v5.2h-1.8V4.2z"/>
	<path fill="#101010" d="M215,9.3c0-3.3,0.8-5.4,4.1-5.4c3.6,0,3.6,2.3,3.6,6.2h-6.1c0.1,2,0.5,3.1,2.5,3.1c1.4,0,2.1-0.3,2.7-0.6
		l0.7,1.4c-0.8,0.4-1.8,0.8-3.5,0.8C215.6,14.8,215,12.7,215,9.3z M216.7,8.6h4.4c0-1.9-0.1-3.1-2-3.1
		C217.2,5.5,216.8,6.6,216.7,8.6z"/>
	<path fill="#101010" d="M223.7,14.1l0.7-1.4c0.7,0.4,1.7,0.6,2.8,0.6c1.1,0,1.8-0.4,1.8-1.4c0-1-0.6-1.3-2.2-2
		c-1.7-0.8-2.8-1.4-2.8-3.1c0-2,1.3-2.9,3.4-2.9c1.3,0,2.1,0.2,2.9,0.5l-0.7,1.5c-0.6-0.2-1.3-0.5-2.2-0.5c-1.2,0-1.6,0.5-1.6,1.3
		c0,0.8,0.6,1.2,2.1,1.8c1.8,0.8,2.8,1.4,2.8,3.3c0,2-1.3,2.9-3.4,2.9C225.8,14.8,224.6,14.5,223.7,14.1z"/>
</g>
</svg>
