<?xml version="1.0" encoding="utf-8"?>
<!-- Generator: Adobe Illustrator 17.1.0, SVG Export Plug-In . SVG Version: 6.00 Build 0)  -->
<!DOCTYPE svg PUBLIC "-//W3C//DTD SVG 1.1//EN" "http://www.w3.org/Graphics/SVG/1.1/DTD/svg11.dtd">
<svg version="1.1" id="Layer_1" xmlns="http://www.w3.org/2000/svg" xmlns:xlink="http://www.w3.org/1999/xlink" x="0px" y="0px"
	 viewBox="0 0 181 17.6" enable-background="new 0 0 181 17.6" xml:space="preserve">
<g>
	<path fill="#101010" d="M0,0.5h4.8C7.7,0.5,9,1.9,9,4.8c0,2.8-1.2,4.5-4.2,4.5H1.8v5.3H0V0.5z M4.7,7.6c1.7,0,2.5-0.7,2.5-2.7
		S6.4,2.2,4.7,2.2H1.8v5.4H4.7z"/>
	<path fill="#101010" d="M13.1,14.6c-1.8,0-2.4-0.6-2.4-2.5V0h1.8v11.9c0,0.9,0.1,1.1,1.3,1.1v1.6C13.7,14.6,13.5,14.6,13.1,14.6z"
		/>
	<path fill="#101010" d="M15.1,10.7V4.1h1.8v6.5c0,1.7,0.2,2.6,2.1,2.6c1.8,0,2-0.9,2-2.6V4.1h1.7v6.6c0,2.8-0.6,4.1-3.8,4.1
		C15.8,14.8,15.1,13.5,15.1,10.7z"/>
	<path fill="#101010" d="M24.1,14l0.7-1.4c0.7,0.4,1.7,0.6,2.8,0.6c1.1,0,1.8-0.4,1.8-1.4c0-1-0.6-1.3-2.2-2
		c-1.7-0.8-2.8-1.4-2.8-3.1c0-2,1.3-2.9,3.4-2.9c1.3,0,2.1,0.2,2.9,0.5l-0.7,1.5c-0.6-0.2-1.3-0.5-2.2-0.5c-1.2,0-1.6,0.5-1.6,1.3
		c0,0.8,0.6,1.2,2.1,1.8C30,9.3,31,9.9,31,11.9c0,2-1.3,2.9-3.4,2.9C26.2,14.7,25,14.5,24.1,14z"/>
	<path fill="#101010" d="M36,4.2L37.4,4l0.1,1.1c0.5-0.7,1.4-1.2,3.2-1.2c3.1,0,3.5,2.6,3.5,5.4c0,2.9-0.4,5.4-3.6,5.4
		c-1.7,0-2.5-0.4-3-1.1v4H36V4.2z M42.5,9.4c0-2.2-0.3-3.8-2.2-3.8c-2.3,0-2.5,1.6-2.5,3.8s0.2,3.8,2.5,3.8
		C42.2,13.2,42.5,11.6,42.5,9.4z"/>
	<path fill="#101010" d="M46,4.2L47.4,4l0.2,1.2C48,4.5,48.8,4,50.5,4v1.7c-2.6,0.1-2.7,1.8-2.7,3.7v5.2H46V4.2z"/>
	<path fill="#101010" d="M51.1,9.3c0-3.1,0.6-5.4,4.2-5.4c3.6,0,4.2,2.4,4.2,5.4c0,3.2-0.6,5.5-4.2,5.5
		C51.8,14.8,51.1,12.5,51.1,9.3z M57.7,9.4c0-2.2-0.2-3.8-2.4-3.8c-2.2,0-2.4,1.6-2.4,3.8s0.2,3.8,2.4,3.8
		C57.5,13.2,57.7,11.6,57.7,9.4z"/>
	<path fill="#101010" d="M60.5,4.1h1.7l0.3-2.8l1.4-0.3v3.1h2.5v1.6h-2.5v6c0,0.9,0.1,1.4,1.3,1.4h1.2v1.6c-0.3,0-1.1,0.1-1.4,0.1
		c-2.4,0-2.9-0.9-2.9-2.9V5.6h-1.6V4.1z"/>
	<path fill="#101010" d="M67.4,9.3c0-3.3,0.8-5.4,4.1-5.4c3.6,0,3.6,2.3,3.6,6.2h-6.1c0.1,2,0.5,3.1,2.5,3.1c1.4,0,2.1-0.3,2.7-0.6
		L75,14c-0.8,0.4-1.8,0.8-3.5,0.8C68,14.7,67.4,12.6,67.4,9.3z M69.1,8.5h4.4c0-1.9-0.1-3.1-2-3.1C69.6,5.5,69.2,6.6,69.1,8.5z"/>
	<path fill="#101010" d="M76.5,9.3c0-3.3,0.7-5.4,4.2-5.4c1.1,0,1.9,0.2,2.6,0.5l-0.8,1.5c-0.5-0.3-1.1-0.4-1.7-0.4
		c-2,0-2.5,1.3-2.5,3.8c0,2.5,0.4,3.9,2.5,3.9c0.8,0,1.4-0.2,2-0.5l0.7,1.4c-0.9,0.5-1.7,0.7-2.8,0.7C77.2,14.8,76.5,12.7,76.5,9.3z
		"/>
	<path fill="#101010" d="M84.1,4.1h1.7l0.3-2.8l1.4-0.3v3.1H90v1.6h-2.5v6c0,0.9,0.1,1.4,1.3,1.4H90v1.6c-0.3,0-1.1,0.1-1.4,0.1
		c-2.4,0-2.9-0.9-2.9-2.9V5.6h-1.6V4.1z"/>
	<path fill="#101010" d="M91.8,0.6h1.8v2.1h-1.8V0.6z M91.8,4.1h1.8v10.5h-1.8V4.1z"/>
	<path fill="#101010" d="M94.9,4.1h1.9l2.4,8.2l2.4-8.2h1.8l-3.3,10.6h-1.9L94.9,4.1z"/>
	<path fill="#101010" d="M104,9.3c0-3.3,0.8-5.4,4.1-5.4c3.6,0,3.6,2.3,3.6,6.2h-6.1c0.1,2,0.5,3.1,2.5,3.1c1.4,0,2.1-0.3,2.7-0.6
		l0.7,1.4c-0.8,0.4-1.8,0.8-3.5,0.8C104.6,14.7,104,12.6,104,9.3z M105.7,8.5h4.4c0-1.9-0.1-3.1-2-3.1
		C106.2,5.5,105.8,6.6,105.7,8.5z"/>
	<path fill="#101010" d="M116.5,9.3c0-3.1,0.6-5.4,4.2-5.4c3.6,0,4.2,2.4,4.2,5.4c0,3.2-0.6,5.5-4.2,5.5
		C117.2,14.8,116.5,12.5,116.5,9.3z M123.1,9.4c0-2.2-0.2-3.8-2.4-3.8c-2.2,0-2.4,1.6-2.4,3.8s0.2,3.8,2.4,3.8
		C122.9,13.2,123.1,11.6,123.1,9.4z"/>
	<path fill="#101010" d="M126.6,4.2l1.4-0.1l0.2,1c0.4-0.7,1.3-1.2,3.2-1.2c2.7,0,3.1,1.6,3.1,3.9v6.9h-1.8V8.1
		c0-1.7-0.2-2.6-1.9-2.6c-2.1,0-2.4,1.2-2.4,3.5v5.5h-1.8V4.2z"/>
	<path fill="#101010" d="M136.1,9.3c0-3.3,0.8-5.4,4.1-5.4c3.6,0,3.6,2.3,3.6,6.2h-6.1c0.1,2,0.5,3.1,2.5,3.1c1.4,0,2.1-0.3,2.7-0.6
		l0.7,1.4c-0.8,0.4-1.8,0.8-3.5,0.8C136.7,14.7,136.1,12.6,136.1,9.3z M137.8,8.5h4.4c0-1.9-0.1-3.1-2-3.1
		C138.3,5.5,137.9,6.6,137.8,8.5z"/>
	<path fill="#101010" d="M144.8,14l0.7-1.4c0.7,0.4,1.7,0.6,2.8,0.6s1.8-0.4,1.8-1.4c0-1-0.6-1.3-2.2-2c-1.7-0.8-2.8-1.4-2.8-3.1
		c0-2,1.3-2.9,3.4-2.9c1.3,0,2.1,0.2,2.9,0.5l-0.7,1.5c-0.6-0.2-1.3-0.5-2.2-0.5c-1.2,0-1.6,0.5-1.6,1.3c0,0.8,0.6,1.2,2.1,1.8
		c1.8,0.8,2.8,1.4,2.8,3.3c0,2-1.3,2.9-3.4,2.9C146.9,14.7,145.7,14.5,144.8,14z"/>
	<path fill="#101010" d="M156,4.1h1.7l0.3-2.8l1.4-0.3v3.1h2.5v1.6h-2.5v6c0,0.9,0.1,1.4,1.3,1.4h1.2v1.6c-0.3,0-1.1,0.1-1.4,0.1
		c-2.4,0-2.9-0.9-2.9-2.9V5.6H156V4.1z"/>
	<path fill="#101010" d="M162.8,9.3c0-3.1,0.6-5.4,4.2-5.4c3.6,0,4.2,2.4,4.2,5.4c0,3.2-0.6,5.5-4.2,5.5
		C163.5,14.8,162.8,12.5,162.8,9.3z M169.5,9.4c0-2.2-0.2-3.8-2.4-3.8c-2.2,0-2.4,1.6-2.4,3.8s0.2,3.8,2.4,3.8
		C169.3,13.2,169.5,11.6,169.5,9.4z"/>
	<path fill="#101010" d="M172.6,9.3c0-3.1,0.6-5.4,4.2-5.4c3.6,0,4.2,2.4,4.2,5.4c0,3.2-0.6,5.5-4.2,5.5
		C173.3,14.8,172.6,12.5,172.6,9.3z M179.3,9.4c0-2.2-0.2-3.8-2.4-3.8c-2.2,0-2.4,1.6-2.4,3.8s0.2,3.8,2.4,3.8
		C179,13.2,179.3,11.6,179.3,9.4z"/>
</g>
</svg>
