<?xml version="1.0" encoding="utf-8"?>
<!-- Generator: Adobe Illustrator 17.1.0, SVG Export Plug-In . SVG Version: 6.00 Build 0)  -->
<!DOCTYPE svg PUBLIC "-//W3C//DTD SVG 1.1//EN" "http://www.w3.org/Graphics/SVG/1.1/DTD/svg11.dtd">
<svg version="1.1" id="Layer_1" xmlns="http://www.w3.org/2000/svg" xmlns:xlink="http://www.w3.org/1999/xlink" x="0px" y="0px"
	 viewBox="0 0 181.4 39.6" enable-background="new 0 0 181.4 39.6" xml:space="preserve">
<g>
	<path fill="#101010" d="M0,13.7l0.9-1.4c0.7,0.4,1.9,1,3.6,1c1.8,0,2.7-0.8,2.7-2.1c0-1.6-0.8-2-3.1-2.9c-2.3-1-3.6-1.8-3.6-4
		c0-2.3,1.4-3.7,4.2-3.7c1.6,0,2.8,0.3,3.7,0.8L7.7,2.8C7,2.4,6.1,2.1,4.8,2.1C3.1,2.1,2.3,2.9,2.3,4c0,1.3,0.6,1.7,2.6,2.6
		C7.8,7.8,9,8.5,9,11.1c0,2.3-1.5,3.7-4.4,3.7C2.5,14.8,1,14.3,0,13.7z"/>
	<path fill="#101010" d="M10.6,10.7V4.1h1.8v6.5c0,1.7,0.2,2.6,2.1,2.6c1.8,0,2-0.9,2-2.6V4.1h1.7v6.6c0,2.8-0.6,4.1-3.8,4.1
		C11.3,14.8,10.6,13.5,10.6,10.7z"/>
	<path fill="#101010" d="M20.3,4.2l1.4-0.1l0.1,1.1c0.5-0.7,1.4-1.2,3.2-1.2c3.1,0,3.5,2.6,3.5,5.4c0,2.9-0.4,5.4-3.6,5.4
		c-1.7,0-2.5-0.4-3-1.1v4h-1.8V4.2z M26.8,9.4c0-2.2-0.3-3.8-2.2-3.8c-2.3,0-2.5,1.6-2.5,3.8s0.2,3.8,2.5,3.8
		C26.5,13.2,26.8,11.7,26.8,9.4z"/>
	<path fill="#101010" d="M29.9,9.3c0-3.3,0.8-5.4,4.1-5.4c3.6,0,3.6,2.3,3.6,6.2h-6.1c0.1,2,0.5,3.1,2.5,3.1c1.4,0,2.1-0.3,2.7-0.6
		l0.7,1.4c-0.8,0.4-1.8,0.8-3.5,0.8C30.5,14.8,29.9,12.7,29.9,9.3z M31.6,8.6H36c0-1.9-0.1-3.1-2-3.1C32.1,5.5,31.7,6.6,31.6,8.6z"
		/>
	<path fill="#101010" d="M39.4,4.2l1.4-0.1l0.2,1.2C41.3,4.6,42.1,4,43.9,4v1.7c-2.6,0.1-2.7,1.8-2.7,3.7v5.2h-1.8V4.2z"/>
	<path fill="#101010" d="M45.2,0.7H47v2.1h-1.8V0.7z M45.2,4.1h1.8v10.5h-1.8V4.1z"/>
	<path fill="#101010" d="M48.8,9.3c0-3.1,0.6-5.4,4.2-5.4c3.6,0,4.2,2.4,4.2,5.4c0,3.2-0.6,5.5-4.2,5.5
		C49.4,14.8,48.8,12.5,48.8,9.3z M55.4,9.4c0-2.2-0.2-3.8-2.4-3.8c-2.2,0-2.4,1.6-2.4,3.8s0.2,3.8,2.4,3.8
		C55.2,13.2,55.4,11.6,55.4,9.4z"/>
	<path fill="#101010" d="M58.9,4.2l1.4-0.1l0.2,1.2C60.9,4.6,61.7,4,63.4,4v1.7c-2.6,0.1-2.7,1.8-2.7,3.7v5.2h-1.8V4.2z"/>
	<path fill="#101010" d="M67.3,14.1l0.7-1.4c0.7,0.4,1.7,0.6,2.8,0.6c1.1,0,1.8-0.4,1.8-1.4c0-1-0.6-1.3-2.2-2
		c-1.7-0.8-2.8-1.4-2.8-3.1c0-2,1.3-2.9,3.4-2.9c1.3,0,2.1,0.2,2.9,0.5l-0.7,1.5c-0.6-0.2-1.3-0.5-2.2-0.5c-1.2,0-1.6,0.5-1.6,1.3
		c0,0.8,0.6,1.2,2.1,1.8c1.8,0.8,2.8,1.4,2.8,3.3c0,2-1.3,2.9-3.4,2.9C69.4,14.8,68.2,14.5,67.3,14.1z"/>
	<path fill="#101010" d="M75.3,11.5c0-3.1,1.8-3.9,5.4-3.9h0.4c0-1.4-0.3-2.1-1.9-2.1c-1.1,0-2,0.3-2.6,0.6l-0.7-1.5
		c0.8-0.4,2-0.7,3.5-0.7c2.8,0,3.4,1.2,3.4,3.7v4.4c0,0.8,0.1,1,0.8,1v1.6c-0.2,0-0.3,0-0.5,0c-1.1,0-1.6-0.2-1.8-1
		c-0.6,0.8-1.6,1.1-3,1.1C76.1,14.8,75.3,13.5,75.3,11.5z M81.1,10.6V9.1h-0.4c-2.6,0-3.7,0.3-3.7,2.2c0,1.5,0.6,2,1.8,2
		C80.1,13.3,81.1,12.7,81.1,10.6z"/>
	<path fill="#101010" d="M84.7,4.1h1.7V2.9c0-1.8,0.8-2.9,3-2.9c0.4,0,1,0,1.2,0v1.6h-1.1c-1.2,0-1.4,0.6-1.4,1.5v1h2.4v1.6h-2.4v9
		h-1.8v-9h-1.7V4.1z"/>
	<path fill="#101010" d="M91.1,9.3c0-3.3,0.8-5.4,4.1-5.4c3.6,0,3.6,2.3,3.6,6.2h-6.1c0.1,2,0.5,3.1,2.5,3.1c1.4,0,2.1-0.3,2.7-0.6
		l0.7,1.4c-0.8,0.4-1.8,0.8-3.5,0.8C91.8,14.8,91.1,12.7,91.1,9.3z M92.9,8.6h4.4c0-1.9-0.1-3.1-2-3.1C93.4,5.5,92.9,6.6,92.9,8.6z"
		/>
	<path fill="#101010" d="M99.9,4.1h1.7l0.3-2.8l1.4-0.3v3.1h2.5v1.6h-2.5v6c0,0.9,0.1,1.4,1.3,1.4h1.2v1.6c-0.3,0-1.1,0.1-1.4,0.1
		c-2.4,0-2.9-0.9-2.9-2.9V5.7h-1.6V4.1z"/>
	<path fill="#101010" d="M107.5,16.2h1c0.6,0,0.8-0.2,0.9-0.7l0.2-0.8l-3.2-10.6h1.8l2.3,8l2.3-8h1.7l-3.6,11.8
		c-0.4,1.4-1.2,1.8-2.6,1.8h-0.9V16.2z"/>
	<path fill="#101010" d="M118.6,4.1h1.7V2.9c0-1.8,0.8-2.9,3-2.9c0.4,0,1,0,1.2,0v1.6h-1.1c-1.2,0-1.4,0.6-1.4,1.5v1h2.4v1.6H122v9
		h-1.8v-9h-1.7V4.1z"/>
	<path fill="#101010" d="M125,9.3c0-3.3,0.8-5.4,4.1-5.4c3.6,0,3.6,2.3,3.6,6.2h-6.1c0.1,2,0.5,3.1,2.5,3.1c1.4,0,2.1-0.3,2.7-0.6
		l0.7,1.4c-0.8,0.4-1.8,0.8-3.5,0.8C125.6,14.8,125,12.7,125,9.3z M126.7,8.6h4.4c0-1.9-0.1-3.1-2-3.1
		C127.2,5.5,126.8,6.6,126.7,8.6z"/>
	<path fill="#101010" d="M133.9,11.5c0-3.1,1.8-3.9,5.4-3.9h0.4c0-1.4-0.3-2.1-1.9-2.1c-1.1,0-2,0.3-2.6,0.6l-0.7-1.5
		c0.8-0.4,2-0.7,3.5-0.7c2.8,0,3.4,1.2,3.4,3.7v4.4c0,0.8,0.1,1,0.8,1v1.6c-0.2,0-0.3,0-0.5,0c-1.1,0-1.6-0.2-1.8-1
		c-0.6,0.8-1.6,1.1-3,1.1C134.7,14.8,133.9,13.5,133.9,11.5z M139.8,10.6V9.1h-0.4c-2.6,0-3.7,0.3-3.7,2.2c0,1.5,0.6,2,1.8,2
		C138.7,13.3,139.8,12.7,139.8,10.6z"/>
	<path fill="#101010" d="M143.3,4.1h1.7l0.3-2.8l1.4-0.3v3.1h2.5v1.6h-2.5v6c0,0.9,0.1,1.4,1.3,1.4h1.2v1.6c-0.3,0-1.1,0.1-1.4,0.1
		c-2.4,0-2.9-0.9-2.9-2.9V5.7h-1.6V4.1z"/>
	<path fill="#101010" d="M150.9,10.7V4.1h1.8v6.5c0,1.7,0.2,2.6,2.1,2.6c1.8,0,2-0.9,2-2.6V4.1h1.7v6.6c0,2.8-0.6,4.1-3.8,4.1
		C151.6,14.8,150.9,13.5,150.9,10.7z"/>
	<path fill="#101010" d="M160.6,4.2l1.4-0.1l0.2,1.2c0.4-0.7,1.2-1.3,2.9-1.3v1.7c-2.6,0.1-2.7,1.8-2.7,3.7v5.2h-1.8V4.2z"/>
	<path fill="#101010" d="M165.7,9.3c0-3.3,0.8-5.4,4.1-5.4c3.6,0,3.6,2.3,3.6,6.2h-6.1c0.1,2,0.5,3.1,2.5,3.1c1.4,0,2.1-0.3,2.7-0.6
		l0.7,1.4c-0.8,0.4-1.8,0.8-3.5,0.8C166.3,14.8,165.7,12.7,165.7,9.3z M167.4,8.6h4.4c0-1.9-0.1-3.1-2-3.1
		C167.9,5.5,167.5,6.6,167.4,8.6z"/>
	<path fill="#101010" d="M174.4,14.1l0.7-1.4c0.7,0.4,1.7,0.6,2.8,0.6c1.1,0,1.8-0.4,1.8-1.4c0-1-0.6-1.3-2.2-2
		c-1.7-0.8-2.8-1.4-2.8-3.1c0-2,1.3-2.9,3.4-2.9c1.3,0,2.1,0.2,2.9,0.5l-0.7,1.5c-0.6-0.2-1.3-0.5-2.2-0.5c-1.2,0-1.6,0.5-1.6,1.3
		c0,0.8,0.6,1.2,2.1,1.8c1.8,0.8,2.8,1.4,2.8,3.3c0,2-1.3,2.9-3.4,2.9C176.5,14.8,175.4,14.5,174.4,14.1z"/>
	<path fill="#101010" d="M18.3,26.1H20v-1.2c0-1.8,0.8-2.9,3-2.9c0.4,0,1,0,1.2,0v1.6h-1.1c-1.2,0-1.4,0.6-1.4,1.5v1h2.4v1.6h-2.4v9
		H20v-9h-1.7V26.1z"/>
	<path fill="#101010" d="M24.8,31.3c0-3.1,0.6-5.4,4.2-5.4c3.6,0,4.2,2.4,4.2,5.4c0,3.2-0.6,5.5-4.2,5.5
		C25.5,36.8,24.8,34.5,24.8,31.3z M31.4,31.4c0-2.2-0.2-3.8-2.4-3.8c-2.2,0-2.4,1.6-2.4,3.8s0.2,3.8,2.4,3.8
		C31.2,35.2,31.4,33.6,31.4,31.4z"/>
	<path fill="#101010" d="M34.9,26.2l1.4-0.1l0.2,1.2c0.4-0.7,1.2-1.3,2.9-1.3v1.7c-2.6,0.1-2.7,1.8-2.7,3.7v5.2h-1.8V26.2z"/>
	<path fill="#101010" d="M44.3,38.2h1c0.6,0,0.8-0.2,0.9-0.7l0.2-0.8l-3.2-10.6H45l2.3,8l2.3-8h1.7l-3.6,11.8
		c-0.4,1.4-1.2,1.8-2.6,1.8h-0.9V38.2z"/>
	<path fill="#101010" d="M52,31.3c0-3.1,0.6-5.4,4.2-5.4c3.6,0,4.2,2.4,4.2,5.4c0,3.2-0.6,5.5-4.2,5.5C52.6,36.8,52,34.5,52,31.3z
		 M58.6,31.4c0-2.2-0.2-3.8-2.4-3.8c-2.2,0-2.4,1.6-2.4,3.8s0.2,3.8,2.4,3.8C58.4,35.2,58.6,33.6,58.6,31.4z"/>
	<path fill="#101010" d="M62.1,32.7v-6.6h1.8v6.5c0,1.7,0.2,2.6,2.1,2.6c1.8,0,2-0.9,2-2.6v-6.5h1.7v6.6c0,2.8-0.6,4.1-3.8,4.1
		C62.8,36.8,62.1,35.5,62.1,32.7z"/>
	<path fill="#101010" d="M71.8,26.2l1.4-0.1l0.2,1.2c0.4-0.7,1.2-1.3,2.9-1.3v1.7c-2.6,0.1-2.7,1.8-2.7,3.7v5.2h-1.8V26.2z"/>
	<path fill="#101010" d="M80.9,26.2l1.4-0.1l0.1,1.1c0.5-0.7,1.4-1.2,3.2-1.2c3.1,0,3.5,2.6,3.5,5.4c0,2.9-0.4,5.4-3.6,5.4
		c-1.7,0-2.5-0.4-3-1.1v4h-1.8V26.2z M87.5,31.4c0-2.2-0.3-3.8-2.2-3.8c-2.3,0-2.5,1.6-2.5,3.8s0.2,3.8,2.5,3.8
		C87.2,35.2,87.5,33.7,87.5,31.4z"/>
	<path fill="#101010" d="M91,26.2l1.4-0.1l0.2,1.2c0.4-0.7,1.2-1.3,2.9-1.3v1.7c-2.6,0.1-2.7,1.8-2.7,3.7v5.2H91V26.2z"/>
	<path fill="#101010" d="M96,31.3c0-3.1,0.6-5.4,4.2-5.4c3.6,0,4.2,2.4,4.2,5.4c0,3.2-0.6,5.5-4.2,5.5C96.7,36.8,96,34.5,96,31.3z
		 M102.7,31.4c0-2.2-0.2-3.8-2.4-3.8c-2.2,0-2.4,1.6-2.4,3.8s0.2,3.8,2.4,3.8C102.5,35.2,102.7,33.6,102.7,31.4z"/>
	<path fill="#101010" d="M105.5,26.1h1.7l0.3-2.8l1.4-0.3v3.1h2.5v1.6h-2.5v6c0,0.9,0.1,1.4,1.3,1.4h1.2v1.6c-0.3,0-1.1,0.1-1.4,0.1
		c-2.4,0-2.9-0.9-2.9-2.9v-6.2h-1.6V26.1z"/>
	<path fill="#101010" d="M112.4,31.3c0-3.3,0.8-5.4,4.1-5.4c3.6,0,3.6,2.3,3.6,6.2h-6.1c0.1,2,0.5,3.1,2.5,3.1
		c1.4,0,2.1-0.3,2.7-0.6l0.7,1.4c-0.8,0.4-1.8,0.8-3.5,0.8C113,36.8,112.4,34.7,112.4,31.3z M114.1,30.6h4.4c0-1.9-0.1-3.1-2-3.1
		C114.6,27.5,114.2,28.6,114.1,30.6z"/>
	<path fill="#101010" d="M121.4,31.3c0-3.3,0.7-5.4,4.2-5.4c1.1,0,1.9,0.2,2.6,0.5l-0.8,1.5c-0.5-0.3-1.1-0.4-1.7-0.4
		c-2,0-2.5,1.3-2.5,3.8c0,2.5,0.4,3.9,2.5,3.9c0.8,0,1.4-0.2,2-0.5l0.7,1.4c-0.9,0.5-1.7,0.7-2.8,0.7
		C122.2,36.8,121.4,34.7,121.4,31.3z"/>
	<path fill="#101010" d="M129.1,26.1h1.7l0.3-2.8l1.4-0.3v3.1h2.5v1.6h-2.5v6c0,0.9,0.1,1.4,1.3,1.4h1.2v1.6c-0.3,0-1.1,0.1-1.4,0.1
		c-2.4,0-2.9-0.9-2.9-2.9v-6.2h-1.6V26.1z"/>
	<path fill="#101010" d="M136.8,22.7h1.8v2.1h-1.8V22.7z M136.8,26.1h1.8v10.5h-1.8V26.1z"/>
	<path fill="#101010" d="M140.4,31.3c0-3.1,0.6-5.4,4.2-5.4c3.6,0,4.2,2.4,4.2,5.4c0,3.2-0.6,5.5-4.2,5.5
		C141.1,36.8,140.4,34.5,140.4,31.3z M147.1,31.4c0-2.2-0.2-3.8-2.4-3.8c-2.2,0-2.4,1.6-2.4,3.8s0.2,3.8,2.4,3.8
		C146.8,35.2,147.1,33.6,147.1,31.4z"/>
	<path fill="#101010" d="M150.6,26.2l1.4-0.1l0.2,1c0.4-0.7,1.3-1.2,3.2-1.2c2.7,0,3.1,1.6,3.1,3.9v6.9h-1.8v-6.5
		c0-1.7-0.2-2.6-1.9-2.6c-2.1,0-2.4,1.2-2.4,3.5v5.5h-1.8V26.2z"/>
	<path fill="#101010" d="M160.3,34.3h2.2v2.4h-2.2V34.3z"/>
</g>
</svg>
