<?xml version="1.0" encoding="utf-8"?>
<!-- Generator: Adobe Illustrator 17.1.0, SVG Export Plug-In . SVG Version: 6.00 Build 0)  -->
<!DOCTYPE svg PUBLIC "-//W3C//DTD SVG 1.1//EN" "http://www.w3.org/Graphics/SVG/1.1/DTD/svg11.dtd">
<svg version="1.1" id="Layer_1" xmlns="http://www.w3.org/2000/svg" xmlns:xlink="http://www.w3.org/1999/xlink" x="0px" y="0px"
	 viewBox="0 0 121 32" enable-background="new 0 0 121 32" xml:space="preserve">
<g>
	<g>
		<g>
			<path fill="#035085" d="M18.944,9.369h1.537v5.635l4.481-5.635h1.793l-3.617,4.482l3.729,7.379h-1.713l-3.058-6.115l-1.616,2.082
				v4.033h-1.537V9.369z"/>
			<path fill="#035085" d="M28.304,9.369h1.681l4.803,8.771V9.369h1.488V21.23h-1.44l-5.059-9.172v9.172h-1.473V9.369z"/>
			<path fill="#035085" d="M37.824,15.307c0-3.281,0.512-6.066,4.514-6.066c3.985,0,4.481,2.785,4.481,6.066
				c0,3.283-0.496,6.051-4.481,6.051C38.336,21.357,37.824,18.59,37.824,15.307z M45.268,15.355c0-2.656-0.289-4.625-2.93-4.625
				c-2.673,0-2.945,1.969-2.945,4.625s0.272,4.609,2.945,4.609C44.995,19.965,45.268,18.012,45.268,15.355z"/>
			<path fill="#035085" d="M47.569,9.369h1.568l2.097,8.963l2.161-8.963h1.36l2.177,8.963l2.097-8.963h1.457l-2.802,11.941h-1.504
				l-2.146-8.805l-2.145,8.805h-1.505L47.569,9.369z"/>
			<path fill="#035085" d="M64.832,9.369h1.953l2.945,9.221l2.945-9.221h1.952V21.23h-1.521v-8.932l-2.881,8.932h-1.12l-2.897-8.932
				v8.932h-1.377V9.369z"/>
			<path fill="#035085" d="M76.192,15.307c0-3.281,0.512-6.066,4.514-6.066c3.985,0,4.481,2.785,4.481,6.066
				c0,3.283-0.496,6.051-4.481,6.051C76.704,21.357,76.192,18.59,76.192,15.307z M83.636,15.355c0-2.656-0.288-4.625-2.93-4.625
				c-2.673,0-2.945,1.969-2.945,4.625s0.272,4.609,2.945,4.609C83.363,19.965,83.636,18.012,83.636,15.355z"/>
			<path fill="#035085" d="M90.45,16.652h-2.161v4.578h-1.537V9.369h4.002c2.465,0,3.521,1.168,3.521,3.537
				c0,1.922-0.688,3.201-2.289,3.602l2.145,4.723h-1.616L90.45,16.652z M90.706,15.26c1.425,0,2.032-0.609,2.032-2.273
				c0-1.633-0.607-2.225-2.032-2.225h-2.417v4.498H90.706z"/>
			<path fill="#035085" d="M96.016,9.369h6.515v1.424h-4.993v3.602h4.737v1.41h-4.737v4.033h5.042v1.393h-6.563V9.369z"/>
		</g>
	</g>
	<rect x="0.5" y="0.5" fill="none" stroke="#035085" stroke-miterlimit="10" width="120" height="31"/>
</g>
</svg>
