<?xml version="1.0" encoding="utf-8"?>
<!-- Generator: Adobe Illustrator 17.1.0, SVG Export Plug-In . SVG Version: 6.00 Build 0)  -->
<!DOCTYPE svg PUBLIC "-//W3C//DTD SVG 1.1//EN" "http://www.w3.org/Graphics/SVG/1.1/DTD/svg11.dtd">
<svg version="1.1" id="Layer_1" xmlns="http://www.w3.org/2000/svg" xmlns:xlink="http://www.w3.org/1999/xlink" x="0px" y="0px"
	 viewBox="419 191 325 141" enable-background="new 419 191 325 141" xml:space="preserve">
<path fill="#FFFFFF" d="M736.1,234.6c0.3-0.6,0-1.1-0.8-1.1c-4,0-9.2,0-13.5,0c-0.9,0-1.5,0.2-2,1.1c-1.5,2.9-20.4,31.2-23.8,36.5
	c-0.6,0.8-1.4,0.8-1.4-0.3c-0.3-3.2-3.2-6.9-7.5-8.8c-3.4-1.4-6.6-1.7-10.1-1.2c-6.1,0.8-11.7,4.1-16.6,7.8
	c-7.4,5.5-13.7,12.7-21.8,18.1c-4.5,2.9-10.6,5.4-14.6,1.7c-3.7-3.4-3.2-11.1,2.3-16.9c0.6-0.6,1.2-0.2,1.2,0.5
	c-0.5,2.6,0.2,5.2,2.1,7.1c2.5,2.1,6,2.5,9.1,0.9c3.5-1.7,5.7-5.2,6.3-9.1c0.9-6-3.7-11.2-9.4-11.7c-4.6-0.3-9.2,1.2-13.5,4.9
	c-2.1,1.8-3.4,3.2-5.4,5.8c-0.5,0.6-1.2,0.8-1.1-0.3c0.2-7.7-2.9-12-9.2-12.1c-4.9-0.2-10.1,2.6-14.3,5.8
	c-4.5,3.5-8.4,8.4-12.6,12.9c-0.5,0.6-0.9,0.5-1.1-0.6c-0.2-5.1-1.4-10-3.7-13.5c-0.8-1.2-2.6-1.8-4-0.9c-0.6,0.3-3.1,1.4-4.8,2.9
	c-0.9,0.8-1.2,1.7-0.8,3.1c2.3,7.5,1.8,16.3-1.2,23.5c-2.8,6.6-8.3,12.7-14.7,14.7c-4.3,1.4-8.6,0.6-11.4-3.1
	c-3.7-5.2-2.3-14.3,3.4-21.8c4.9-6.6,12.1-10.7,19.2-13.5c0.8-0.3,1.1-0.9,0.8-1.5c-0.5-1.2-1.1-2.8-1.2-3.5
	c-1.2-1.5-3.1-1.8-5.4-1.5c-5.2,0.6-9.8,2.3-14.4,4.9c-12.1,6.4-18.1,18.9-20.9,25.6c-1.2,3.2-2.3,5.2-3.8,7.1
	c-1.8,2.5-4.3,4.6-8.6,8.4c-0.5,0.3-0.8,1.1-0.3,1.8c0.5,0.9,2.8,4.1,3.4,4.5c0.8,0.3,1.5-0.2,1.8-0.3c3.1-2.1,6.8-5.4,8.4-7.5
	c0.6-0.8,1.2-0.5,1.5,0.8c1.7,6,6,10.9,12.1,12.9c11.1,3.7,22.6-1.7,31.3-11.1c5.5-6,7.5-9.8,9.7-12.4c3.5-4.5,10.6-14.4,19-20.7
	c3.1-2.3,6.8-4.1,8.6-2.9c1.5,0.9,2,3.2-0.5,7.5c-8.6,15.7-21.2,34.1-23.5,38.5c-0.5,0.8,0,1.4,0.8,1.4c4.5,0,8.9,0,13.1,0
	c0.6,0,0.9-0.3,1.4-0.8c6.6-10.3,12.7-20.1,19.3-30.2c0.3-0.6,0.8-0.2,0.8,0.2c0.2,2.3,0.8,5.5,2.1,7.7c2.5,3.8,6.1,5.5,10,5.7
	c3.1,0,4.8-0.5,8.1-1.7c2.8-1.1,4.9-2.3,6.6-3.5c0.9-0.6,1.2,0.5,1.1,0.6c-1.5,8.1,0.3,17.8,8.4,22c9.7,4.8,20.4-2,26.6-8
	c0.6-0.6,1.2-0.5,1.4,0.8c0.2,2.3,1.2,5.1,3.1,7.1c5.2,5.2,15.5,3.1,26-4.9c6.8-5.2,13.7-12.4,20.1-20.3c0.3-0.3,0.5-0.8,0-1.2
	c-0.9-1.1-2.3-2.1-3.4-3.1c-0.5-0.3-1.1-0.3-1.4,0c-6.4,6.1-12.3,13.2-20.7,19c-2.9,2-7.4,3.5-9.4,0.8c-0.8-1.1-0.8-2.6,0.2-4.5
	C695.1,297.6,734.1,238.2,736.1,234.6z M684.5,284.5c0.2,0.5,0.6,0.9,1.2,1.1c0.2,0,0.3,0.2,0.2,0.8c-1.7,3.5-3.2,5.5-5.2,8.8
	c-1.8,2.9-4,5.1-6.6,7.2c-4,3.2-9.4,6.8-14,4.5c-2-1.1-2.9-3.8-2.8-6.1c0.2-6.4,2.9-12.9,8.1-19.3c6.4-7.8,13.5-12,18.1-9.7
	c4.8,2.3,3.2,7.8,1.1,12.3C684.5,283.9,684.5,284.2,684.5,284.5z"/>
<path fill="#FFFFFF" d="M453.3,318.3c-14.6,0-27.3-8.9-28.9-24.4c-0.8-8.8,1.7-16.4,6.4-22.7c4.3-5.7,11.7-10.3,17.8-11.5
	c2-0.3,4.8-0.2,5.8,1.2c1.7,2,1.2,4.3-0.5,5.2c-4.8,2.5-10.4,6.6-13.2,12.1c-2.3,4.6-2.8,10.1,0.8,15.5c5.8,8.8,22.1,9.1,37.3-5.1
	c3.7-3.4,7.1-6.8,10.4-10.6c6.6-7.7,8.9-10.4,17.8-22.7c0.2-0.2,0.2-0.3,0.2-0.5s-0.2-0.2-0.5-0.2c-6,0.2-11.1,2-16.1,5.7
	c-1.4,1.1-3.5,0.9-4.5-0.5c-1.1-1.5-0.3-3.5,1.4-4.8c8.1-5.7,16.9-6.6,25.8-8.1c0,0,0.6,0,1.1-0.6c3.7-4.8,6.4-9.1,10.4-13.8
	c4-4.9,9.1-9.4,13.1-12.7c5.5-4.8,8.9-6.3,12.6-8.3c0.9-0.5-0.2-1.1-0.5-1.1c-19.8-3.7-40.5-8.4-60.3-1.2
	c-13.7,5.2-19.7,16-16.7,23.3c2,5.1,8.8,6,15.2,2.9c5.2-2.6,10.1-6.8,13.5-12.1c2-2.9,6-0.8,3.8,4.3c-5.8,13.5-16.9,24.4-30.2,24.9
	c-11.5,0.3-18.9-8.1-18.9-18.6c0-20.4,22.9-33.9,46.8-35.9c28.9-2.5,56.2,5.2,84.9,8.8c22,2.6,43,2.8,65.1-2.3
	c2.6-0.6,4.5,1.1,4.3,3.7c-0.2,3.8-3.2,7.5-10.4,11.5c-8.3,4.6-16.9,5.8-26,6c-21.8,0.2-42.2-8.3-63.3-12.9c0,0.9,0.3,2-0.5,2.6
	c-11.7,8.6-22.3,17.4-29.3,29.6c-0.3,0.3-0.2,0.6,0.3,0.5c6.1-0.3,11.7-0.5,17.4-0.9c0.9-0.2,1.1-0.3,0.9-1.1
	c-0.5-4.3,0.8-9.1,4.5-12.4c3.8-3.4,8.6-3.8,11.7-1.4c3.5,2.8,3.2,7.8,1.4,11.7c-2,3.8-5.4,5.8-8.4,6.9c0,0-0.6,0.2-0.6,0.8
	c0.2,0.9,4.5,3.4,4.8,4c0.3,0.6,0.2,1.5-0.5,2.3c-0.5,0.5-1.2,1.1-2.1,0.9c-0.8,0-1.2-0.3-2.1-0.8c-2-1.1-4.3-2.8-6-4.8
	c-0.6-0.6-0.8-0.8-2.1-0.6c-6.1,0.3-15.8,1.2-22.4,2.1c-1.5,0.2-1.8,0.5-2.1,1.1c-10.4,17.2-21.5,35.8-33.8,48.2
	C475.7,314.6,464.8,318.2,453.3,318.3z M552.6,241.9c0.2,0.9,0.5,1.1,0.9,0.9c2-0.5,4.1-2,5.4-4c1.2-1.7,1.7-4.1,0.6-5.2
	c-1.1-0.9-2.8-0.6-4,0.5C553.1,236.3,552.3,239.5,552.6,241.9z"/>
</svg>
